# xmcd
#
# Track frame offsets:
#	150
#	17267
#	38745
#	49773
#	61407
#	74995
#	88648
#	104563
#	119901
#	135047
#	148814
#
# Disc length: 2204 seconds
#
# Revision: 1
# Processed by: cddbd v1.4PL0 Copyright (c) Steve Scherf et al.
# Submitted via: audiograbber 1.80
#
DISCID=a0089a0b
DTITLE=Shelley Laine - Back To Austin
DYEAR=1900
DGENRE=
TTITLE0=My Baby
TTITLE1=Stormy
TTITLE2=Is That Love Or What
TTITLE3=It's My Turn Now
TTITLE4=That Girl Doesn't Live Here Anymore
TTITLE5=Back To Austin
TTITLE6=Feed A Promise
TTITLE7=Live A Little
TTITLE8=Wakeup Call
TTITLE9=I Don't Have The Heart
TTITLE10=Fade Away
EXTD=
EXTT0=
EXTT1=
EXTT2=
EXTT3=
EXTT4=
EXTT5=
EXTT6=
EXTT7=
EXTT8=
EXTT9=
EXTT10=
PLAYORDER=
